<svg data-v-423bf9ae="" xmlns="http://www.w3.org/2000/svg" viewBox="0 0 313.95917008927074 60" class="font"><!----><!----><!----><g data-v-423bf9ae="" id="e2c27e03-9ca3-4b2f-a77d-f7cee58a5689" fill="white" transform="matrix(6.1224488604322,0,0,6.1224488604322,-0.0000013044009961049596,-4.285714427340487)"><path d="M3.53 1.68L0.98 1.68L0.98 4.62L3.02 4.62L3.02 5.60L0.98 5.60L0.98 10.50L0 10.50L0 4.62L0.98 4.62L0 1.68L0 0.70L3.53 0.70L3.53 1.68ZM7.97 1.68L5.42 1.68L5.42 4.62L7.46 4.62L7.46 5.60L5.42 5.60L5.42 9.52L7.97 9.52L7.97 10.50L4.44 10.50L4.44 4.62L5.42 4.62L4.44 1.68L4.44 0.70L7.97 0.70L7.97 1.68ZM8.88 10.50L8.88 4.62L9.86 4.62L9.86 10.50L8.88 10.50ZM8.88 0.70L11.70 0.70L11.70 0.70Q12.15 0.70 12.48 1.03L12.48 1.03L12.48 1.03Q12.81 1.36 12.81 1.82L12.81 1.82L12.81 4.48L12.81 4.48Q12.81 4.94 12.48 5.27L12.48 5.27L12.48 5.27Q12.15 5.60 11.70 5.60L11.70 5.60L11.35 5.60L12.81 10.50L11.76 10.50L10.07 4.62L11.70 4.62L11.70 4.62Q11.83 4.62 11.83 4.48L11.83 4.48L11.83 1.82L11.83 1.82Q11.83 1.68 11.70 1.68L11.70 1.68L9.86 1.68L9.86 4.62L8.88 1.68L8.88 0.70ZM14.66 0.70L16.72 0.70L16.72 0.70Q17.12 0.77 17.39 1.08L17.39 1.08L17.39 1.08Q17.65 1.39 17.65 1.81L17.65 1.81L17.65 9.39L17.65 9.39Q17.65 9.81 17.39 10.12L17.39 10.12L17.39 10.12Q17.12 10.43 16.72 10.50L16.72 10.50L14.66 10.50L14.66 10.50Q14.25 10.43 13.99 10.12L13.99 10.12L13.99 10.12Q13.72 9.81 13.72 9.39L13.72 9.39L13.72 1.81L13.72 1.81Q13.72 1.39 13.99 1.08L13.99 1.08L13.99 1.08Q14.25 0.77 14.66 0.70L14.66 0.70ZM16.67 9.39L16.67 1.81L16.67 1.81Q16.67 1.67 16.55 1.67L16.55 1.67L14.84 1.67L14.84 1.67Q14.70 1.67 14.70 1.81L14.70 1.81L14.70 9.39L14.70 9.39Q14.70 9.53 14.84 9.53L14.84 9.53L16.55 9.53L16.55 9.53Q16.67 9.53 16.67 9.39L16.67 9.39ZM23.11 0.70L21.62 5.14L23.10 10.50L22.06 10.50L20.85 5.85L19.63 10.50L18.58 10.50L20.06 5.14L18.56 0.70L19.64 0.70L20.85 4.48L22.04 0.70L23.11 0.70ZM27.86 4.76L27.86 4.76L27.86 4.76Q27.68 5.00 27.31 5.11L27.31 5.11L27.31 5.11Q27.69 5.24 27.86 5.49L27.86 5.49L27.86 5.49Q27.89 5.56 27.89 5.61L27.89 5.61L27.89 5.61Q27.89 5.67 27.89 5.74L27.89 5.74L27.89 9.38L27.89 9.38Q27.89 9.84 27.57 10.17L27.57 10.17L27.57 10.17Q27.24 10.50 26.78 10.50L26.78 10.50L23.95 10.50L23.95 4.62L24.93 4.62L23.95 1.68L23.95 0.70L26.78 0.70L26.78 0.70Q27.24 0.70 27.57 1.03L27.57 1.03L27.57 1.03Q27.89 1.36 27.89 1.82L27.89 1.82L27.89 4.48L27.89 4.48Q27.89 4.55 27.89 4.62L27.89 4.62L27.89 4.62Q27.89 4.69 27.86 4.76ZM26.91 9.38L26.91 5.74L26.91 5.74Q26.91 5.60 26.78 5.60L26.78 5.60L24.93 5.60L24.93 9.52L26.78 9.52L26.78 9.52Q26.91 9.52 26.91 9.38L26.91 9.38ZM26.91 4.48L26.91 1.82L26.91 1.82Q26.91 1.68 26.78 1.68L26.78 1.68L24.93 1.68L24.93 4.62L26.78 4.62L26.78 4.62Q26.91 4.62 26.91 4.48L26.91 4.48ZM31.71 0.71L32.69 0.71L32.69 9.39L32.69 9.39Q32.69 9.81 32.43 10.12L32.43 10.12L32.43 10.12Q32.17 10.43 31.77 10.50L31.77 10.50L29.74 10.50L29.74 10.50Q29.33 10.43 29.06 10.12L29.06 10.12L29.06 10.12Q28.80 9.81 28.80 9.39L28.80 9.39L28.80 0.71L29.78 0.71L29.78 9.39L29.78 9.39Q29.78 9.53 29.92 9.53L29.92 9.53L31.58 9.53L31.58 9.53Q31.71 9.53 31.71 9.39L31.71 9.39L31.71 0.71ZM37.37 2.86L36.39 2.86L36.39 1.81L36.39 1.81Q36.39 1.67 36.25 1.67L36.25 1.67L34.72 1.67L34.72 1.67Q34.58 1.67 34.58 1.81L34.58 1.81L34.58 4.47L34.58 4.47Q34.58 4.56 34.66 4.59L34.66 4.59L36.25 4.59L36.25 4.59Q36.72 4.59 37.04 4.92L37.04 4.92L37.04 4.92Q37.37 5.25 37.37 5.71L37.37 5.71L37.37 9.39L37.37 9.39Q37.37 9.81 37.10 10.12L37.10 10.12L37.10 10.12Q36.83 10.43 36.43 10.50L36.43 10.50L34.54 10.50L34.54 10.50Q34.13 10.43 33.87 10.12L33.87 10.12L33.87 10.12Q33.60 9.81 33.60 9.39L33.60 9.39L33.60 8.34L34.58 8.34L34.58 9.39L34.58 9.39Q34.58 9.53 34.72 9.53L34.72 9.53L36.25 9.53L36.25 9.53Q36.39 9.53 36.39 9.39L36.39 9.39L36.39 5.71L36.39 5.71Q36.39 5.61 36.30 5.59L36.30 5.59L34.72 5.59L34.72 5.59Q34.26 5.59 33.93 5.26L33.93 5.26L33.93 5.26Q33.60 4.93 33.60 4.47L33.60 4.47L33.60 1.81L33.60 1.81Q33.60 1.39 33.87 1.08L33.87 1.08L33.87 1.08Q34.13 0.77 34.54 0.70L34.54 0.70L36.43 0.70L36.43 0.70Q36.83 0.77 37.10 1.08L37.10 1.08L37.10 1.08Q37.37 1.39 37.37 1.81L37.37 1.81L37.37 2.86ZM42 0.70L42 1.68L40.63 1.68L40.63 10.50L39.65 10.50L39.65 1.68L38.28 1.68L38.28 0.70L42 0.70ZM46.44 1.68L43.89 1.68L43.89 4.62L45.93 4.62L45.93 5.60L43.89 5.60L43.89 9.52L46.44 9.52L46.44 10.50L42.91 10.50L42.91 4.62L43.89 4.62L42.91 1.68L42.91 0.70L46.44 0.70L46.44 1.68ZM47.35 10.50L47.35 4.62L48.33 4.62L48.33 10.50L47.35 10.50ZM47.35 0.70L50.18 0.70L50.18 0.70Q50.62 0.70 50.95 1.03L50.95 1.03L50.95 1.03Q51.28 1.36 51.28 1.82L51.28 1.82L51.28 4.48L51.28 4.48Q51.28 4.94 50.95 5.27L50.95 5.27L50.95 5.27Q50.62 5.60 50.18 5.60L50.18 5.60L49.83 5.60L51.28 10.50L50.23 10.50L48.54 4.62L50.18 4.62L50.18 4.62Q50.30 4.62 50.30 4.48L50.30 4.48L50.30 1.82L50.30 1.82Q50.30 1.68 50.18 1.68L50.18 1.68L48.33 1.68L48.33 4.62L47.35 1.68L47.35 0.70Z"></path></g><!----><!----></svg>